<?xml version="1.0" encoding="utf-8"?>
<!-- Generator: Adobe Illustrator 17.0.2, SVG Export Plug-In . SVG Version: 6.00 Build 0)  -->
<!DOCTYPE svg PUBLIC "-//W3C//DTD SVG 1.1//EN" "http://www.w3.org/Graphics/SVG/1.1/DTD/svg11.dtd">
<svg version="1.1" id="Layer_1" xmlns="http://www.w3.org/2000/svg" xmlns:xlink="http://www.w3.org/1999/xlink" x="0px" y="0px"
	 width="40px" height="40px" viewBox="0 0 40 40" enable-background="new 0 0 40 40" xml:space="preserve">
<g>
	<path fill="#FFFFFF" d="M18.251,23.744l-0.5-7.484c-0.094-1.458-0.141-2.505-0.141-3.141c0-0.864,0.227-1.539,0.68-2.023
		s1.049-0.727,1.789-0.727c0.896,0,1.495,0.31,1.797,0.93c0.302,0.62,0.453,1.513,0.453,2.68c0,0.688-0.037,1.386-0.109,2.094
		l-0.672,7.703c-0.073,0.917-0.229,1.62-0.469,2.109c-0.24,0.49-0.636,0.734-1.188,0.734c-0.562,0-0.953-0.236-1.172-0.711
		C18.501,25.435,18.345,24.713,18.251,23.744z M19.985,34.026c-0.636,0-1.19-0.206-1.664-0.617
		c-0.474-0.411-0.711-0.986-0.711-1.727c0-0.646,0.227-1.195,0.68-1.648s1.008-0.68,1.664-0.68s1.216,0.227,1.68,0.68
		c0.463,0.453,0.695,1.003,0.695,1.648c0,0.729-0.234,1.303-0.703,1.719C21.158,33.818,20.61,34.026,19.985,34.026z"/>
</g>
<path fill="none" stroke="#FFFFFF" stroke-width="2" stroke-miterlimit="10" d="M21.881,5.051c-1.097-1.907-2.883-1.903-3.971,0.01
	L1.977,33.087C0.89,35,1.8,36.565,4,36.565h32c2.2,0,3.103-1.56,2.006-3.468L21.881,5.051z"/>
</svg>
