<?xml version="1.0" encoding="utf-8"?>
<!-- Generator: Adobe Illustrator 17.1.0, SVG Export Plug-In . SVG Version: 6.00 Build 0)  -->
<!DOCTYPE svg PUBLIC "-//W3C//DTD SVG 1.1//EN" "http://www.w3.org/Graphics/SVG/1.1/DTD/svg11.dtd">
<svg version="1.1" id="Layer_1" xmlns="http://www.w3.org/2000/svg" xmlns:xlink="http://www.w3.org/1999/xlink" x="0px" y="0px"
	 viewBox="0 0 40 40" enable-background="new 0 0 40 40" xml:space="preserve">
<g>
	<path fill="#CC0000" d="M18.3,23.7l-0.5-7.5c-0.1-1.5-0.1-2.5-0.1-3.1c0-0.9,0.2-1.5,0.7-2s1-0.7,1.8-0.7c0.9,0,1.5,0.3,1.8,0.9
		s0.5,1.5,0.5,2.7c0,0.7,0,1.4-0.1,2.1l-0.7,7.7c-0.1,0.9-0.2,1.6-0.5,2.1c-0.2,0.5-0.6,0.7-1.2,0.7c-0.6,0-1-0.2-1.2-0.7
		C18.5,25.4,18.3,24.7,18.3,23.7z M20,34c-0.6,0-1.2-0.2-1.7-0.6c-0.5-0.4-0.7-1-0.7-1.7c0-0.6,0.2-1.2,0.7-1.6s1-0.7,1.7-0.7
		s1.2,0.2,1.7,0.7c0.5,0.5,0.7,1,0.7,1.6c0,0.7-0.2,1.3-0.7,1.7C21.2,33.8,20.6,34,20,34z"/>
</g>
<path fill="none" stroke="#CC0000" stroke-width="2" stroke-miterlimit="10" d="M21.9,5.1c-1.1-1.9-2.9-1.9-4,0L2,33.1
	c-1.1,1.9-0.2,3.5,2,3.5h32c2.2,0,3.1-1.6,2-3.5L21.9,5.1z"/>
</svg>
